HIERARCHY
ROOT root
{
	OFFSET 0.000000 0.000000 0.000000
	CHANNELS 6 Xposition Yposition Zposition Zrotation Yrotation Xrotation
	JOINT lhip
	{
		OFFSET 0.058581 -0.082280 -0.017664
		CHANNELS 3 Zrotation Yrotation Xrotation
		JOINT lknee
		{
			OFFSET 0.043451 -0.386469 0.008037
			CHANNELS 3 Zrotation Yrotation Xrotation
			JOINT lankle
			{
				OFFSET -0.014790 -0.426874 -0.037428
				CHANNELS 3 Zrotation Yrotation Xrotation
				JOINT ltoe
				{
					OFFSET 0.041054 -0.060286 0.122042
					CHANNELS 3 Zrotation Yrotation Xrotation
					End Site
					{
						OFFSET 0.000000 0.000000 0.000000
					}
				}
			}
		}
	}
	JOINT rhip
	{
		OFFSET -0.060310 -0.090513 -0.013543
		CHANNELS 3 Zrotation Yrotation Xrotation
		JOINT rknee
		{
			OFFSET -0.043257 -0.383688 -0.004843
			CHANNELS 3 Zrotation Yrotation Xrotation
			JOINT rankle
			{
				OFFSET 0.019056 -0.420046 -0.034562
				CHANNELS 3 Zrotation Yrotation Xrotation
				JOINT rtoe
				{
					OFFSET -0.034840 -0.062106 0.130323
					CHANNELS 3 Zrotation Yrotation Xrotation
					End Site
					{
						OFFSET 0.000000 0.000000 0.000000
					}
				}
			}
		}
	}
	JOINT lowerback
	{
		OFFSET 0.004439 0.124404 -0.038385
		CHANNELS 3 Zrotation Yrotation Xrotation
		JOINT upperback
		{
			OFFSET 0.004488 0.137956 0.026820
			CHANNELS 3 Zrotation Yrotation Xrotation
			JOINT chest
			{
				OFFSET -0.002265 0.056032 0.002855
				CHANNELS 3 Zrotation Yrotation Xrotation
				JOINT lowerneck
				{
					OFFSET -0.013390 0.211636 -0.033468
					CHANNELS 3 Zrotation Yrotation Xrotation
					JOINT upperneck
					{
						OFFSET 0.010113 0.088937 0.050410
						CHANNELS 3 Zrotation Yrotation Xrotation
						End Site
						{
							OFFSET 0.000000 0.000000 0.000000
						}
					}
				}
				JOINT lclavicle
				{
					OFFSET 0.071702 0.114000 -0.018898
					CHANNELS 3 Zrotation Yrotation Xrotation
					JOINT lshoulder
					{
						OFFSET 0.122921 0.045205 -0.019046
						CHANNELS 3 Zrotation Yrotation Xrotation
						JOINT lelbow
						{
							OFFSET 0.255332 -0.015649 -0.022946
							CHANNELS 3 Zrotation Yrotation Xrotation
							JOINT lwrist
							{
								OFFSET 0.265709 0.012698 -0.007375
								CHANNELS 3 Zrotation Yrotation Xrotation
								End Site
								{
									OFFSET 0.000000 0.000000 0.000000
								}
							}
						}
					}
				}
				JOINT rclavicle
				{
					OFFSET -0.082954 0.112472 -0.023707
					CHANNELS 3 Zrotation Yrotation Xrotation
					JOINT rshoulder
					{
						OFFSET -0.113228 0.046853 -0.008472
						CHANNELS 3 Zrotation Yrotation Xrotation
						JOINT relbow
						{
							OFFSET -0.260127 -0.014369 -0.031269
							CHANNELS 3 Zrotation Yrotation Xrotation
							JOINT rwrist
							{
								OFFSET -0.269108 0.006794 -0.006027
								CHANNELS 3 Zrotation Yrotation Xrotation
								End Site
								{
									OFFSET 0.000000 0.000000 0.000000
								}
							}
						}
					}
				}
			}
		}
	}
}
MOTION
Frames: 5
Frame Time: 0.033333
-2.438911 0.173636 0.927850 73.460548 1.141598 106.026946 12.127547 5.121083 -60.167766 -9.025434 25.298562 34.225337 -9.636842 -0.004811 -6.223592 0.000000 -0.000000 0.000000 -11.966011 -5.091226 9.485603 -5.702204 8.968240 33.819130 12.988184 -2.349793 13.326049 0.000000 -0.000000 0.000000 -2.030282 16.026972 24.372509 -2.358858 0.292333 -1.977801 0.587246 5.520510 -3.092012 -4.501070 -6.924215 -11.368677 5.806469 -0.122526 -11.316376 -9.792036 6.807927 11.491932 -56.395769 31.790338 1.779822 -71.943975 -76.057480 92.473834 18.614772 -13.964798 -33.338928 2.544644 11.854121 -3.104502 66.011435 15.214232 11.662982 -127.760746 70.102181 -106.847604 -2.760588 13.048784 -6.146833 
-2.328538 0.173260 0.918809 77.141249 1.011593 105.893664 7.738136 2.100539 -57.430026 -9.491020 22.327114 40.550175 2.657675 -1.696102 -13.929008 0.000000 -0.000000 0.000000 -9.169094 -4.282123 4.245245 -6.383682 5.656006 47.295060 7.675756 -6.120409 6.775727 0.000000 -0.000000 0.000000 -2.138004 13.474976 25.464795 -2.180957 0.406967 -3.708709 0.740012 4.717270 -1.906414 -2.927654 -7.572689 -14.023006 4.728328 0.040239 -8.871008 -15.505083 6.985884 8.973944 -57.698347 25.562730 2.551855 -48.450857 -79.684612 69.495591 18.180012 -12.840061 -30.859078 8.093244 11.137545 -1.716542 66.346984 11.646671 13.162402 -94.976168 72.268926 -75.677887 -3.147230 12.068941 -7.322436 
-2.220054 0.174866 0.906345 81.445446 -0.078470 105.374232 3.631214 -1.991224 -54.187369 -9.263746 20.286541 48.023488 11.787481 3.250482 -22.614276 0.000000 -0.000000 0.000000 -7.970485 -3.353375 -3.035791 -4.721916 2.682243 61.311373 3.945024 -10.084365 -1.828359 0.000000 -0.000000 0.000000 -2.261309 10.917657 26.994558 -1.666343 0.152596 -5.092848 0.177888 3.548434 -0.558199 -1.145398 -7.712202 -17.788362 3.639314 -0.289401 -6.416632 -22.385326 4.962416 6.084624 -56.425749 16.816590 5.711719 -3.902323 -77.839055 22.544727 19.848199 -10.616536 -28.182589 15.480093 10.083874 -0.922925 64.051780 7.917751 14.540075 -62.379605 66.752189 -47.265493 -4.491085 11.140299 -9.112296 
-2.087478 0.179940 0.892493 86.732807 -0.987895 103.910706 -1.308656 -6.772988 -46.580214 -8.966575 15.924115 54.200884 15.367609 10.135301 -32.290680 0.000000 -0.000000 0.000000 -8.582576 -1.621602 -16.437386 -2.989999 -2.993857 76.794691 2.817085 -12.191799 -13.317529 0.000000 -0.000000 0.000000 -1.460343 6.863791 30.067034 -0.861396 0.175991 -6.050193 -0.771448 1.799150 -0.022261 0.565986 -5.463451 -22.738031 1.377525 -1.877275 -3.179600 -31.376719 -0.034544 2.357320 -52.306869 4.920239 11.682591 22.549935 -68.903472 -9.691849 22.292851 -9.961776 -24.988438 25.799929 8.617555 0.283637 57.273704 3.563308 15.700439 -42.675950 55.342878 -36.169980 -7.860747 9.985185 -11.617107 
-2.006839 0.183451 0.886341 89.254863 -0.289581 102.463048 -4.185563 -7.134240 -39.052528 -9.064003 11.180332 55.275934 15.648535 12.903340 -37.664300 0.000000 -0.000000 0.000000 -9.131063 -1.215644 -25.804211 -2.837390 -5.721788 82.707191 2.770572 -12.822110 -18.206846 0.000000 -0.000000 0.000000 -0.232570 3.666098 32.675812 -0.721313 0.706236 -7.932979 -0.782902 0.900841 0.659555 0.551813 -3.938941 -24.730560 0.603433 -2.227115 -1.521172 -32.793378 -2.117152 0.693428 -52.899146 -0.767005 13.843402 28.986843 -68.904469 -15.295637 22.399896 -10.849992 -22.527283 28.526287 7.221348 0.796543 55.062119 0.415546 15.012412 -36.172247 51.189944 -32.060021 -9.170444 10.084074 -9.885884 
